<svg width="241" height="97" viewBox="0 0 241 97" fill="none" xmlns="http://www.w3.org/2000/svg">
<g clip-path="url(#clip0_730_790)">
<path d="M45.8441 86.9343H51.8C54.9457 86.9343 56.1592 88.0173 56.1592 89.6896C56.1592 90.7248 55.6163 91.6167 54.3868 91.9352V91.9671C55.744 92.2538 56.0953 93.2094 56.0953 94.372V96.3787H54.1153V94.372C54.1153 93.2731 53.5884 92.7316 52.2152 92.7316H47.8081V96.3787H45.8281V86.9343H45.8441ZM52.0555 91.4256C53.6203 91.4256 54.3229 90.8363 54.3229 89.9604C54.3229 89.0844 53.6044 88.4951 51.6563 88.4951H47.84V91.4256H52.0555Z" fill="white"/>
<path d="M66.906 93.2731H59.5609C59.6886 94.3561 60.3752 95.232 62.5628 95.232C64.447 95.232 65.1176 94.6746 65.2294 94.0853H66.922C66.8421 95.3276 65.6126 96.538 62.5788 96.538C58.8264 96.538 57.7246 94.6746 57.7246 92.9068C57.7246 90.6452 59.4651 89.1641 62.467 89.1641C65.4689 89.1641 66.9379 90.5178 66.9379 92.7157V93.289L66.906 93.2731ZM65.2134 92.1264C65.2134 91.1708 64.447 90.4541 62.4989 90.4541C60.7106 90.4541 59.8483 91.0593 59.6088 92.1582H65.2134V92.1105V92.1264Z" fill="white"/>
<path d="M69.0774 93.6234V90.7248H67.6562V89.2914H68.8059C69.1093 89.2914 69.2051 89.1322 69.253 88.7659L69.3648 87.6829H70.9137V89.2914H74.9694V90.7248H70.9137V93.5438C70.9137 94.5631 71.4246 95.0409 73.213 95.0409C73.8038 95.0409 74.5383 94.9613 74.9056 94.8816V96.2672C74.5862 96.3628 73.8038 96.4902 73.0054 96.4902C70.0354 96.4902 69.0614 95.2639 69.0614 93.6394L69.0774 93.6234Z" fill="white"/>
<path d="M76.0234 94.2924C76.0234 92.9068 77.1571 92.3335 78.9455 92.3335H83.2249V92.1902C83.2249 91.0275 82.4265 90.4542 80.4784 90.4542C78.5304 90.4542 78.0194 90.9638 78.0194 91.569C78.0194 91.6168 78.0194 91.6487 78.0194 91.7442H76.2629C76.2629 91.6168 76.2629 91.5212 76.2629 91.4894C76.2629 90.1038 77.5563 89.1482 80.5263 89.1482C83.4963 89.1482 85.0771 90.3905 85.0771 92.3653V96.3788H83.2408C83.2887 95.8851 83.3207 95.1525 83.3207 94.6747C83.0013 95.8055 81.9794 96.5062 79.5842 96.5062C76.9975 96.5062 76.0394 95.4073 76.0394 94.2765L76.0234 94.2924ZM83.2249 93.4802V93.4324H79.3766C78.2908 93.4324 77.7 93.5439 77.7 94.2287C77.7 94.7065 78.0992 95.2321 79.9195 95.2321C82.187 95.2321 83.2089 94.3084 83.2089 93.4802H83.2249Z" fill="white"/>
<path d="M86.5449 86.5999H88.493V88.2721H86.5449V86.5999ZM86.5928 89.2914H88.4291V96.3946H86.5928V89.2914Z" fill="white"/>
<path d="M90.0586 89.2915H91.8949L91.8629 91.3779H91.8949C92.4218 89.9286 93.5874 89.1482 95.8868 89.1482C98.7929 89.1482 99.8148 90.5338 99.8148 92.2857V96.3947H97.9786V92.7794C97.9786 91.5212 97.3239 90.6612 95.2002 90.6612C93.4757 90.6612 91.8949 91.4735 91.8949 93.2094V96.3947H90.0586V89.2915Z" fill="white"/>
<path d="M106.554 93.6234V90.7248H105.133V89.2914H106.282C106.586 89.2914 106.682 89.1322 106.73 88.7659L106.841 87.6829H108.39V89.2914H112.446V90.7248H108.39V93.5438C108.39 94.5631 108.901 95.0409 110.69 95.0409C111.28 95.0409 112.015 94.9613 112.382 94.8816V96.2672C112.063 96.3628 111.28 96.4902 110.482 96.4902C107.512 96.4902 106.538 95.2639 106.538 93.6394L106.554 93.6234Z" fill="white"/>
<path d="M113.275 92.8591C113.275 90.9957 114.665 89.1482 118.161 89.1482C121.658 89.1482 123.048 90.9797 123.048 92.8591C123.048 94.7384 121.69 96.5381 118.161 96.5381C114.633 96.5381 113.275 94.7384 113.275 92.8591ZM121.195 92.8591C121.195 91.6805 120.381 90.5975 118.161 90.5975C115.942 90.5975 115.128 91.6964 115.128 92.8591C115.128 94.0217 115.926 95.1047 118.161 95.1047C120.397 95.1047 121.195 94.0376 121.195 92.8591Z" fill="white"/>
<path d="M128.876 93.2093H130.68C130.68 94.1171 131.207 95.0568 134.177 95.0568C137.147 95.0568 137.754 94.356 137.754 93.5278C137.754 93.05 137.467 92.7474 136.876 92.5882C136.205 92.4289 134.64 92.3811 133.539 92.3334C132.293 92.2696 130.776 92.1263 129.978 91.76C129.275 91.4255 128.828 90.7407 128.828 89.8488C128.828 88.1606 130.505 86.7432 134.145 86.7432C138.489 86.7432 139.303 88.304 139.303 90.0081H137.499C137.499 88.9251 136.684 88.2403 134.145 88.2403C131.83 88.2403 130.808 88.8136 130.808 89.7055C130.808 90.1833 131.064 90.4381 131.543 90.6133C132.133 90.8203 133.73 90.8681 134.8 90.9318C136.141 91.0115 137.515 91.0911 138.361 91.3937C139.255 91.7441 139.766 92.4926 139.766 93.3845C139.766 94.8179 138.952 96.5379 134.209 96.5379C129.467 96.5379 128.908 94.4357 128.908 93.1934L128.876 93.2093Z" fill="white"/>
<path d="M141.107 93.2889V89.2754H142.944V92.8907C142.944 94.1967 143.614 95.0089 145.642 95.0089C147.479 95.0089 149.027 93.9737 149.027 92.174V89.2754H150.864V96.3786H149.027C149.059 95.869 149.091 94.9134 149.091 94.1807H149.059C148.628 95.7734 147.351 96.5219 145.035 96.5219C142.273 96.5219 141.107 94.993 141.107 93.2889Z" fill="white"/>
<path d="M152.252 94.0217H153.992C153.992 94.611 154.296 95.2162 156.515 95.2162C158.735 95.2162 159.198 94.8021 159.198 94.2447C159.198 93.958 159.086 93.735 158.623 93.6395C158.112 93.5439 157.042 93.5121 156.116 93.4802C154.647 93.4324 153.561 93.2572 153.018 92.9706C152.491 92.6839 152.252 92.1424 152.252 91.5531C152.252 90.1197 153.785 89.1482 156.515 89.1482C159.9 89.1482 160.619 90.3586 160.619 91.6964H158.879C158.879 90.9957 158.511 90.4542 156.579 90.4542C154.903 90.4542 154.104 90.7886 154.104 91.4575C154.104 91.7442 154.248 91.9513 154.711 92.0468C155.222 92.1742 156.132 92.1742 157.266 92.2379C158.527 92.3016 159.469 92.3813 160.092 92.6361C160.763 92.9387 161.05 93.512 161.05 94.181C161.05 95.2799 160.236 96.5222 156.531 96.5222C152.827 96.5222 152.268 95.0888 152.268 94.0217H152.252Z" fill="white"/>
<path d="M163.222 93.6234V90.7248H161.801V89.2914H162.95C163.254 89.2914 163.35 89.1322 163.398 88.7659L163.509 87.6829H165.058V89.2914H169.114V90.7248H165.058V93.5438C165.058 94.5631 165.569 95.0409 167.358 95.0409C167.948 95.0409 168.683 94.9613 169.05 94.8816V96.2672C168.731 96.3628 167.948 96.4902 167.15 96.4902C164.18 96.4902 163.206 95.2639 163.206 93.6394L163.222 93.6234Z" fill="white"/>
<path d="M170.152 94.2924C170.152 92.9068 171.286 92.3335 173.074 92.3335H177.354V92.1902C177.354 91.0275 176.555 90.4542 174.607 90.4542C172.659 90.4542 172.148 90.9638 172.148 91.569C172.148 91.6168 172.148 91.6487 172.148 91.7442H170.392C170.392 91.6168 170.392 91.5212 170.392 91.4894C170.392 90.1038 171.685 89.1482 174.655 89.1482C177.625 89.1482 179.206 90.3905 179.206 92.3653V96.3788H177.37C177.418 95.8851 177.45 95.1525 177.45 94.6747C177.13 95.8055 176.108 96.5062 173.713 96.5062C171.126 96.5062 170.168 95.4073 170.168 94.2765L170.152 94.2924ZM177.354 93.4802V93.4324H173.506C172.42 93.4324 171.829 93.5439 171.829 94.2287C171.829 94.7065 172.228 95.2321 174.048 95.2321C176.316 95.2321 177.338 94.3084 177.338 93.4802H177.354Z" fill="white"/>
<path d="M180.691 86.5999H182.639V88.2721H180.691V86.5999ZM180.739 89.2914H182.576V96.3946H180.739V89.2914Z" fill="white"/>
<path d="M184.203 89.2915H186.039L186.007 91.3779H186.039C186.566 89.9286 187.732 89.1482 190.031 89.1482C192.937 89.1482 193.959 90.5338 193.959 92.2857V96.3947H192.123V92.7794C192.123 91.5212 191.468 90.6612 189.345 90.6612C187.62 90.6612 186.039 91.4735 186.039 93.2094V96.3947H184.203V89.2915Z" fill="white"/>
<path d="M230.845 0.819882C212.993 11.3951 190.255 21.8269 163.557 31.1598L168.762 27.0667C168.299 26.5411 167.804 26.0634 167.309 25.5856C181.648 20.4413 194.869 14.8989 206.733 9.03795C142.048 20.9669 73.9303 17.7657 9.43689 5.0404C11.9119 25.4104 4.88611 51.9439 0 60.6557C23.712 58.41 46.6575 55.2407 68.5173 51.2909L68.15 55.6388C56.781 57.6456 45.0927 59.4453 33.069 60.9423C122.903 70.3071 185.193 66.6122 240.984 54.1736C234.661 39.0275 230.988 24.0725 230.845 0.803955V0.819882ZM95.1194 50.3194L92.5167 46.5607C100.181 44.9203 107.686 43.1684 115.015 41.3209L114.983 45.6529C108.516 47.2774 101.89 48.8382 95.1194 50.3194ZM124.771 38.8045C130.105 37.3712 135.358 35.9059 140.484 34.377C140.771 35.7944 141.266 37.0526 142 38.1834C136.412 39.8716 130.679 41.512 124.803 43.1047L124.771 38.8205V38.8045Z" fill="white"/>
<path d="M93.8092 63.0607L83.1907 46.5449L78.1769 46.1786L77.123 61.4044L67.75 60.7354L71.1511 19.8203L84.9472 20.8078C94.3202 21.4767 99.829 26.6528 99.2542 34.7593C98.871 40.1584 96.3002 43.8534 91.8931 45.5575C91.8931 45.5575 91.8931 45.7327 98.1205 54.54C99.8769 57.0405 103.134 56.8335 104.731 56.5468C104.891 56.5149 104.971 56.7379 104.827 56.8175L93.8252 63.0448L93.8092 63.0607ZM78.7517 38.311L84.3564 38.7091C87.7256 38.948 89.9131 37.435 90.1526 34.1223C90.3922 30.8096 88.4281 29.0258 85.059 28.7869L79.4543 28.3888L78.7358 38.311H78.7517Z" fill="#0B0B2B"/>
<path d="M124.931 62.3919H114.871L115.095 30.4275H104.333C104.333 30.4275 104.301 27.6085 104.301 25.7451C104.301 23.3402 101.746 22.6235 99.814 22.1616C99.6543 22.1298 99.6862 21.8909 99.8459 21.8909H135.789L135.358 30.4434H124.708L124.915 62.4078L124.931 62.3919Z" fill="#0B0B2B"/>
<path d="M159.324 29.1374C157.999 27.7837 156.019 27.5288 154.087 27.6403C150.909 27.8474 148.945 29.6471 149.137 32.1794C149.313 34.5365 150.893 35.8584 154.278 36.5432L158.366 37.3714C165.312 38.7092 169.671 42.4042 170.118 48.4562C170.629 55.5754 164.945 61.9937 155.891 62.6627C150.718 63.0449 144.203 60.8789 137.752 54.2694L144.49 48.5677C147.045 51.0204 150.303 53.7438 154.071 54.1261C158.302 54.5561 160.634 52.5812 160.969 49.7303C161.208 47.6281 159.165 45.5895 155.428 44.7613L151.788 43.965C144.666 42.436 140.658 38.7092 140.227 32.6731C139.748 25.9043 145.209 20.4575 152.937 19.9001C158.957 19.47 164.546 22.3846 168.761 27.051L159.149 34.6002C159.021 34.6958 158.845 34.5683 158.925 34.425C159.516 33.1987 160.618 30.4275 159.324 29.1215V29.1374Z" fill="#0B0B2B"/>
</g>
<defs>
<clipPath id="clip0_730_790">
<rect width="241" height="95.7341" fill="white" transform="translate(0 0.819824)"/>
</clipPath>
</defs>
</svg>
