<svg width="177" height="179" viewBox="0 0 177 179" fill="none" xmlns="http://www.w3.org/2000/svg">
<path d="M84.8975 129.556C84.8975 128.461 84.8975 127.522 84.8975 126.427C84.8975 126.27 84.8975 126.27 84.8975 126.114C85.0541 123.923 85.2107 121.733 85.8373 119.542C88.3435 108.589 94.2957 100.14 103.851 94.1941C112.309 88.8742 121.551 87.1531 131.262 88.8742C137.997 89.9695 144.106 92.7859 149.432 97.0106C157.734 103.739 162.746 112.501 163.999 123.141C164.626 127.991 164.313 132.998 163.059 137.692C161.023 145.516 156.951 152.244 150.842 157.72C144.106 163.51 136.431 166.796 127.503 167.578C127.033 167.578 126.563 167.578 126.093 167.734C124.997 167.734 124.057 167.734 122.96 167.734C122.334 167.734 121.551 167.578 120.924 167.578C117.008 167.265 113.249 166.326 109.646 164.761C103.381 162.258 98.055 158.346 93.8258 153.026C88.5001 146.611 85.524 139.257 84.8975 130.964C84.8975 130.338 84.8975 130.025 84.8975 129.556ZM106.67 147.55C104.947 141.604 104.164 135.502 104.007 129.4C98.6815 129.4 93.3559 129.4 88.0302 129.4C88.5001 137.849 91.4762 145.203 96.8019 151.775C99.778 149.74 103.224 148.489 106.67 147.55ZM161.336 129.4C156.011 129.4 150.685 129.4 145.359 129.4C145.203 135.502 144.42 141.604 142.697 147.393C144.42 148.019 146.143 148.489 147.709 149.115C149.432 149.74 150.998 150.523 152.408 151.618C157.89 145.359 160.866 137.849 161.336 129.4ZM96.8019 104.208C91.4762 110.623 88.5001 117.977 88.0302 126.427C93.3559 126.427 98.6815 126.427 104.007 126.427C104.164 120.324 104.947 114.222 106.67 108.276C103.067 107.337 99.778 106.086 96.8019 104.208ZM152.565 104.208C149.432 106.242 146.143 107.337 142.697 108.276C144.42 114.222 145.203 120.324 145.359 126.427C150.685 126.427 156.011 126.427 161.336 126.427C160.866 117.977 157.89 110.623 152.565 104.208ZM123.117 129.4C117.791 129.4 112.466 129.4 107.14 129.4C107.297 135.345 108.08 141.135 109.803 146.768C114.189 145.829 118.731 145.516 123.274 145.359C123.117 140.196 123.117 134.876 123.117 129.4ZM126.25 129.4C126.25 134.719 126.25 140.039 126.25 145.359C130.792 145.516 135.178 145.829 139.72 146.768C141.443 141.135 142.227 135.189 142.383 129.4C136.744 129.4 131.575 129.4 126.25 129.4ZM123.117 126.427C123.117 121.107 123.117 115.787 123.117 110.467C118.574 110.31 114.189 109.997 109.646 109.059C107.923 114.692 107.14 120.637 106.983 126.427C112.466 126.427 117.791 126.427 123.117 126.427ZM139.564 108.902C135.178 109.841 130.636 110.154 126.093 110.31C126.093 115.63 126.093 120.95 126.093 126.27C131.419 126.27 136.744 126.27 142.07 126.27C142.07 120.481 141.287 114.692 139.564 108.902ZM110.586 106.086C114.659 106.868 118.888 107.337 122.96 107.337C122.96 102.018 122.96 96.6976 122.96 91.5342C122.647 91.6906 122.334 91.6906 122.02 91.8471C119.828 92.473 118.261 93.8812 116.695 95.4459C113.875 98.4188 112.152 102.018 110.586 106.086ZM138.624 106.086C138.624 105.929 138.624 105.929 138.624 105.929C138.467 105.46 138.311 104.99 137.997 104.521C136.744 101.548 135.335 98.7317 133.298 96.2282C131.889 94.5071 130.322 93.0989 128.286 92.1601C127.659 91.8471 127.033 91.6906 126.25 91.3777C126.25 96.6976 126.25 102.018 126.25 107.337C130.322 107.181 134.551 106.868 138.624 106.086ZM110.586 149.74C110.899 150.366 111.056 150.992 111.369 151.618C112.622 154.591 114.189 157.564 116.382 160.067C117.791 161.632 119.201 162.884 121.081 163.666C121.707 163.979 122.334 164.136 122.96 164.292C122.96 158.972 122.96 153.652 122.96 148.332C118.888 148.645 114.815 148.958 110.586 149.74ZM126.093 164.448C126.72 164.136 127.346 163.979 127.973 163.823C130.009 162.884 131.732 161.476 133.142 159.598C135.178 157.094 136.744 154.122 137.997 151.149C138.154 150.679 138.311 150.366 138.467 149.897C134.395 149.115 130.166 148.645 126.093 148.645C126.093 153.809 126.093 159.129 126.093 164.448ZM115.128 92.473C111.996 93.2553 109.176 94.5071 106.357 96.0718C103.537 97.6364 101.188 99.5141 98.8382 101.861C101.501 103.582 104.477 104.521 107.61 105.303C109.333 100.609 111.526 96.2282 115.128 92.473ZM134.238 92.6295C137.841 96.2282 140.034 100.609 141.757 105.303C144.733 104.521 147.709 103.582 150.528 101.861C145.829 97.3235 140.347 94.1941 134.238 92.6295ZM115.128 163.353C114.972 163.197 114.972 163.197 114.972 163.197C113.092 161.319 111.682 159.285 110.429 156.938C109.333 155.06 108.55 153.026 107.766 150.836C107.766 150.679 107.61 150.523 107.453 150.679C104.79 151.462 102.284 152.244 99.9346 153.652C99.6214 153.809 99.3081 153.965 98.9948 154.122C103.537 158.503 108.863 161.632 115.128 163.353ZM150.372 154.122C148.962 153.026 143.166 150.679 141.757 150.679C140.034 155.373 137.841 159.754 134.238 163.353C140.347 161.632 145.673 158.503 150.372 154.122Z" fill="#0B0B2B" stroke="#0F0F0F" stroke-miterlimit="10"/>
<path d="M20.833 130.495C25.2188 144.734 37.1233 165.231 70.0171 167.265" stroke="#0F0F0F" stroke-width="3" stroke-miterlimit="10"/>
<path d="M12.2178 135.032L18.3266 116.882L31.1709 131.277L12.2178 135.032Z" fill="#0F0F0F"/>
<path d="M156.324 52.2606C151.938 38.0219 139.877 17.5246 107.14 15.4905" stroke="#0F0F0F" stroke-width="3" stroke-miterlimit="10"/>
<path d="M164.938 47.7229L158.83 65.8732L145.985 51.4781L164.938 47.7229Z" fill="#0F0F0F"/>
<path d="M50.7505 95.4459C73.3291 95.4459 91.6328 77.1619 91.6328 54.6076C91.6328 32.0532 73.3291 13.7693 50.7505 13.7693C28.1718 13.7693 9.86816 32.0532 9.86816 54.6076C9.86816 77.1619 28.1718 95.4459 50.7505 95.4459Z" stroke="#0F0F0F" stroke-width="4" stroke-miterlimit="10"/>
<path d="M64.6912 64.465C64.6912 70.8802 59.8354 75.7307 52.6301 76.3566L52.7867 85.2753H47.7743L47.931 76.2001C43.0752 75.5742 38.846 73.5401 35.5566 70.0978L39.1593 67.2814C42.292 70.4108 46.5212 72.1319 50.9071 72.1319C56.2327 71.9755 59.8354 69.0026 59.6788 64.6214C59.6788 60.7097 57.4858 58.5192 52.1602 56.9545L47.4611 55.5463C40.4124 53.5122 36.9664 49.6005 36.8097 43.9676C36.8097 38.0218 41.1956 33.4842 47.7743 32.5454L47.6177 23.4702H52.6301L52.4735 32.5454C57.0159 33.0148 60.9319 35.0489 64.2212 38.8041L60.7752 41.4641C57.4858 38.3347 54.1965 36.9265 50.4372 36.9265C45.1115 37.083 41.8221 39.8994 41.8221 44.1241C41.8221 47.7228 44.1717 50.0699 49.1841 51.4781L54.1965 52.8863C61.0885 54.7639 64.5345 58.6756 64.6912 64.465Z" fill="#0B0B2B"/>
</svg>
