<svg width="320" height="88" viewBox="0 0 320 88" fill="none" xmlns="http://www.w3.org/2000/svg">
<path d="M306.531 0C282.815 14.0847 252.643 27.9742 217.172 40.3994L224.088 34.9468C223.46 34.2496 222.819 33.6081 222.15 32.9805C241.196 26.1195 258.75 18.7424 274.491 10.947C188.617 26.8167 98.1709 22.5634 12.5206 5.61994C15.8111 32.7435 6.48338 68.0807 0 79.6832C31.4827 76.6989 61.9476 72.4735 90.9764 67.2161L90.5024 73.0034C75.4163 75.6809 59.898 78.0656 43.9336 80.0737C163.214 92.5547 245.922 87.632 320 71.065C311.606 50.9002 306.713 30.9864 306.531 0.0139453V0ZM126.293 65.9053L122.836 60.8989C133.028 58.7095 142.983 56.3807 152.715 53.9263L152.673 59.6996C144.084 61.8751 135.273 63.939 126.293 65.9192V65.9053ZM165.668 50.5655C172.765 48.655 179.722 46.7027 186.526 44.6667C186.903 46.5493 187.572 48.2366 188.534 49.7288C181.116 51.9879 173.49 54.1634 165.696 56.2691L165.654 50.5655H165.668Z" fill="#00E100"/>
<path d="M124.55 82.8629L110.453 60.8851L103.789 60.411L102.381 80.6874L89.9297 79.7949L94.4332 25.3108L112.74 26.6216C125.191 27.5141 132.511 34.4031 131.73 45.2107C131.214 52.3925 127.798 57.3152 121.97 59.5882C121.97 59.5882 121.984 59.8253 130.238 71.5533C132.581 74.8722 136.903 74.6073 139.022 74.2168C139.231 74.175 139.329 74.4678 139.148 74.5654L124.55 82.8629ZM104.542 49.9102L111.987 50.4401C116.449 50.7609 119.377 48.7528 119.697 44.3321C120.004 40.0091 117.411 37.5547 112.949 37.234L105.504 36.7041L104.556 49.9102H104.542Z" fill="#0B0B2B"/>
<path d="M165.876 81.9702H152.519L152.811 39.4093H138.534C138.534 39.4093 138.492 35.6441 138.492 33.1758C138.492 29.9823 135.104 29.0201 132.539 28.3925C132.33 28.3368 132.357 28.03 132.581 28.03H180.307L179.735 39.4093H165.597L165.876 81.9702Z" fill="#0B0B2B"/>
<path d="M211.566 37.7085C209.796 35.9096 207.188 35.561 204.609 35.7004C200.398 35.9654 197.777 38.3639 198.028 41.7387C198.265 44.8624 200.356 46.6335 204.86 47.5539L210.298 48.6555C219.514 50.4266 225.314 55.3632 225.9 63.4096C226.569 72.8785 219.026 81.4408 207.007 82.3333C200.147 82.8493 191.489 79.9487 182.914 71.1632L191.851 63.577C195.239 66.8402 199.576 70.4659 204.567 70.968C210.2 71.5397 213.267 68.918 213.714 65.111C214.034 62.3219 211.315 59.5886 206.366 58.5009L201.542 57.4411C192.074 55.4051 186.762 50.4545 186.191 42.4081C185.549 33.3994 192.813 26.1479 203.061 25.3949C211.051 24.8231 218.468 28.6999 224.087 34.9195L211.329 44.974C211.162 45.0995 210.939 44.9182 211.023 44.7369C211.803 43.1053 213.281 39.4238 211.566 37.6667V37.7085Z" fill="#0B0B2B"/>
</svg>
