<svg width="185" height="51" viewBox="0 0 185 51" fill="none" xmlns="http://www.w3.org/2000/svg">
<path d="M177.167 0C163.463 8.13842 146.029 16.164 125.533 23.3436L129.529 20.1929C129.167 19.7901 128.796 19.4194 128.409 19.0568C139.414 15.0923 149.557 10.8297 158.653 6.3254C109.034 15.4952 56.7719 13.0376 7.28151 3.24731C9.18282 18.9198 3.7931 39.3384 0.046875 46.0425C18.2382 44.3181 35.8414 41.8766 52.6148 38.8388L52.3409 42.1828C43.6239 43.7299 34.6571 45.1078 25.4326 46.2681C94.355 53.4799 142.145 50.6355 184.949 41.0627C180.099 29.4111 177.271 17.9045 177.167 0.00805784V0ZM73.0217 38.0813L71.0237 35.1886C76.9129 33.9235 82.6651 32.5778 88.2885 31.1597L88.2643 34.4956C83.3016 35.7526 78.21 36.9452 73.0217 38.0894V38.0813ZM95.7729 29.2177C99.8736 28.1138 103.894 26.9857 107.825 25.8093C108.043 26.8971 108.429 27.8721 108.985 28.7343C104.699 30.0396 100.293 31.2966 95.789 32.5134L95.7648 29.2177H95.7729Z" fill="#00E100"/>
<path d="M72.0138 47.8797L63.8688 35.1805L60.0178 34.9066L59.2041 46.6227L52.0098 46.107L54.612 14.625L65.19 15.3824C72.3844 15.8981 76.614 19.8787 76.1628 26.1235C75.8647 30.2733 73.8909 33.1177 70.5233 34.4312C70.5233 34.4312 70.5314 34.5682 75.3008 41.3448C76.6543 43.2626 79.1517 43.1095 80.3763 42.8838C80.4972 42.8597 80.5536 43.0289 80.4488 43.0853L72.0138 47.8797ZM60.4529 28.839L64.755 29.1452C67.333 29.3306 69.0249 28.1702 69.2102 25.6159C69.3874 23.118 67.8889 21.6998 65.3109 21.5145L61.0087 21.2083L60.4609 28.839H60.4529Z" fill="#0B0B2B"/>
<path d="M95.8938 47.364H88.1758L88.345 22.7715H80.0953C80.0953 22.7715 80.0711 20.5959 80.0711 19.1696C80.0711 17.3244 78.1134 16.7684 76.631 16.4058C76.5102 16.3736 76.5263 16.1963 76.6552 16.1963H104.232L103.902 22.7715H95.7327L95.8938 47.364Z" fill="#0B0B2B"/>
<path d="M122.292 21.7886C121.269 20.7491 119.763 20.5477 118.272 20.6283C115.839 20.7814 114.324 22.1673 114.469 24.1173C114.606 25.9223 115.815 26.9456 118.417 27.4774L121.559 28.114C126.884 29.1374 130.236 31.9898 130.574 36.6392C130.961 42.1105 126.602 47.058 119.658 47.5737C115.694 47.8718 110.691 46.1958 105.736 41.1194L110.9 36.7359C112.858 38.6214 115.364 40.7165 118.248 41.0066C121.503 41.3369 123.275 39.822 123.533 37.6223C123.718 36.0107 122.147 34.4314 119.287 33.8028L116.5 33.1904C111.029 32.014 107.96 29.1535 107.63 24.5041C107.259 19.2987 111.456 15.1087 117.378 14.6735C121.994 14.3432 126.28 16.5832 129.527 20.177L122.155 25.9867C122.059 26.0593 121.93 25.9545 121.978 25.8498C122.429 24.907 123.283 22.7797 122.292 21.7644V21.7886Z" fill="#0B0B2B"/>
</svg>
