<svg width="417" height="169" viewBox="0 0 417 169" fill="none" xmlns="http://www.w3.org/2000/svg">
<g clip-path="url(#clip0_292_638)" filter="url(#filter0_d_292_638)">
<path d="M81.8867 144.83H91.9803C97.3322 144.83 99.3979 146.642 99.3979 149.477C99.3979 151.196 98.4589 152.729 96.3933 153.24C98.6937 153.752 99.304 155.378 99.304 157.329V160.721H95.9707V157.329C95.9707 155.471 95.0788 154.588 92.7314 154.588H85.2669V160.721H81.8867V144.83ZM92.4028 152.404C95.0788 152.404 96.2524 151.428 96.2524 149.941C96.2524 148.455 95.0318 147.479 91.7455 147.479H85.2669V152.404H92.4028Z" fill="#00E100"/>
<path d="M117.614 155.471H105.173C105.408 157.283 106.581 158.77 110.243 158.77C113.435 158.77 114.562 157.84 114.75 156.818H117.614C117.473 158.909 115.407 160.954 110.243 160.954C103.858 160.954 102.027 157.794 102.027 154.82C102.027 151.01 104.985 148.501 110.055 148.501C115.125 148.501 117.614 150.778 117.614 154.495V155.471ZM114.75 153.519C114.75 151.939 113.435 150.731 110.149 150.731C107.098 150.731 105.642 151.754 105.22 153.612H114.703V153.519H114.75Z" fill="#00E100"/>
<path d="M121.369 156.075V151.196H118.928V148.78H120.899C121.416 148.78 121.604 148.501 121.651 147.897L121.838 146.085H124.467V148.78H131.369V151.196H124.467V155.935C124.467 157.654 125.359 158.444 128.364 158.444C129.35 158.444 130.617 158.305 131.228 158.166V160.489C130.711 160.675 129.35 160.86 127.988 160.86C122.965 160.86 121.275 158.816 121.275 156.028L121.369 156.075Z" fill="#00E100"/>
<path d="M133.152 157.19C133.152 154.867 135.077 153.891 138.129 153.891H145.405V153.658C145.405 151.707 144.044 150.731 140.758 150.731C137.612 150.731 136.579 151.614 136.579 152.636C136.579 152.729 136.579 152.776 136.579 152.915H133.622C133.622 152.915 133.622 152.543 133.622 152.497C133.622 150.174 135.828 148.547 140.852 148.547C145.875 148.547 148.551 150.638 148.551 153.984V160.768H145.405C145.499 159.931 145.546 158.723 145.546 157.887C145.03 159.792 143.293 161 139.208 161C134.795 161 133.199 159.141 133.199 157.236L133.152 157.19ZM145.358 155.796V155.703H138.833C137.002 155.703 136.016 155.889 136.016 157.05C136.016 157.84 136.72 158.723 139.772 158.723C143.621 158.723 145.358 157.19 145.358 155.796Z" fill="#00E100"/>
<path d="M151.039 144.273H154.325V147.061H151.039V144.273ZM151.133 148.78H154.278V160.721H151.133V148.78Z" fill="#00E100"/>
<path d="M157.002 148.78H160.147V152.265C161.039 149.802 163.011 148.501 166.908 148.501C171.837 148.501 173.574 150.824 173.574 153.751V160.675H170.429V154.588C170.429 152.45 169.349 151.01 165.734 151.01C162.823 151.01 160.147 152.404 160.147 155.285V160.675H157.002V148.733V148.78Z" fill="#00E100"/>
<path d="M185.029 156.075V151.196H182.588V148.78H184.56C185.076 148.78 185.264 148.501 185.311 147.897L185.499 146.085H188.128V148.78H195.029V151.196H188.128V155.935C188.128 157.654 189.02 158.444 192.024 158.444C193.01 158.444 194.278 158.305 194.888 158.166V160.489C194.372 160.675 193.01 160.86 191.649 160.86C186.625 160.86 184.935 158.816 184.935 156.028L185.029 156.075Z" fill="#00E100"/>
<path d="M196.438 154.774C196.438 151.614 198.785 148.547 204.7 148.547C210.615 148.547 212.963 151.661 212.963 154.774C212.963 157.887 210.662 160.953 204.7 160.953C198.738 160.953 196.438 157.933 196.438 154.774ZM209.864 154.774C209.864 152.776 208.456 150.964 204.7 150.964C200.944 150.964 199.536 152.822 199.536 154.774C199.536 156.725 200.897 158.537 204.7 158.537C208.503 158.537 209.864 156.725 209.864 154.774Z" fill="#00E100"/>
<path d="M222.961 155.378H226.013C226.013 156.911 226.905 158.491 231.928 158.491C236.951 158.491 237.984 157.283 237.984 155.935C237.984 155.145 237.515 154.634 236.482 154.356C235.355 154.077 232.679 154.03 230.801 153.937C228.689 153.798 226.107 153.612 224.745 152.962C223.572 152.404 222.773 151.242 222.773 149.756C222.773 146.921 225.59 144.552 231.787 144.552C239.158 144.552 240.519 147.2 240.519 150.034H237.468C237.468 148.222 236.059 147.061 231.787 147.061C227.844 147.061 226.107 148.036 226.107 149.523C226.107 150.313 226.529 150.778 227.327 151.057C228.313 151.382 231.036 151.475 232.867 151.568C235.12 151.707 237.468 151.846 238.923 152.358C240.425 152.915 241.27 154.216 241.27 155.703C241.27 158.119 239.862 161 231.834 161C223.806 161 222.82 157.469 222.82 155.378H222.961Z" fill="#00E100"/>
<path d="M243.713 155.517V148.78H246.858V154.867C246.858 157.05 247.985 158.444 251.412 158.444C254.511 158.444 257.14 156.679 257.14 153.659V148.78H260.285V160.721H257.14C257.187 159.838 257.234 158.259 257.234 157.004H257.187C256.435 159.699 254.276 160.954 250.379 160.954C245.685 160.954 243.713 158.398 243.713 155.517Z" fill="#00E100"/>
<path d="M262.631 156.772H265.589C265.589 157.747 266.105 158.77 269.861 158.77C273.616 158.77 274.415 158.073 274.415 157.143C274.415 156.679 274.227 156.307 273.429 156.121C272.584 155.935 270.753 155.889 269.157 155.842C266.668 155.749 264.837 155.471 263.898 154.96C263.006 154.495 262.584 153.566 262.584 152.543C262.584 150.127 265.213 148.501 269.814 148.501C275.541 148.501 276.762 150.545 276.762 152.776H273.804C273.804 151.614 273.194 150.685 269.908 150.685C267.044 150.685 265.682 151.242 265.682 152.358C265.682 152.822 265.917 153.194 266.715 153.333C267.56 153.566 269.11 153.566 271.034 153.659C273.194 153.751 274.79 153.891 275.823 154.356C276.95 154.867 277.466 155.842 277.466 156.958C277.466 158.816 276.058 160.907 269.814 160.907C263.57 160.907 262.584 158.491 262.584 156.679L262.631 156.772Z" fill="#00E100"/>
<path d="M281.269 156.075V151.196H278.828V148.78H280.8C281.316 148.78 281.504 148.501 281.551 147.897L281.739 146.085H284.368V148.78H291.269V151.196H284.368V155.935C284.368 157.654 285.26 158.444 288.264 158.444C289.25 158.444 290.518 158.305 291.128 158.166V160.489C290.612 160.675 289.25 160.86 287.889 160.86C282.866 160.86 281.175 158.816 281.175 156.028L281.269 156.075Z" fill="#00E100"/>
<path d="M293.053 157.19C293.053 154.867 294.978 153.891 298.029 153.891H305.306V153.658C305.306 151.707 303.944 150.731 300.658 150.731C297.513 150.731 296.48 151.614 296.48 152.636C296.48 152.729 296.48 152.776 296.48 152.915H293.522C293.522 152.915 293.522 152.543 293.522 152.497C293.522 150.174 295.729 148.547 300.752 148.547C305.775 148.547 308.451 150.638 308.451 153.984V160.768H305.306C305.4 159.931 305.447 158.723 305.447 157.887C304.93 159.792 303.193 161 299.109 161C294.696 161 293.1 159.141 293.1 157.236L293.053 157.19ZM305.259 155.796V155.703H298.733C296.902 155.703 295.916 155.889 295.916 157.05C295.916 157.84 296.621 158.723 299.672 158.723C303.522 158.723 305.259 157.19 305.259 155.796Z" fill="#00E100"/>
<path d="M310.939 144.273H314.226V147.061H310.939V144.273ZM311.033 148.78H314.179V160.721H311.033V148.78Z" fill="#00E100"/>
<path d="M316.902 148.78H320.048V152.265C320.94 149.802 322.912 148.501 326.808 148.501C331.738 148.501 333.475 150.824 333.475 153.751V160.675H330.329V154.588C330.329 152.45 329.249 151.01 325.634 151.01C322.724 151.01 320.048 152.404 320.048 155.285V160.675H316.902V148.733V148.78Z" fill="#00E100"/>
<path d="M163.198 104.824L145.171 77.0386L136.674 76.4345L134.89 102.083L118.975 100.968L124.749 32.0608L148.175 33.7335C164.09 34.8487 173.433 43.584 172.447 57.2446C171.79 66.3517 167.424 72.5315 159.959 75.4123C159.959 75.4123 159.959 75.7376 170.522 90.5598C173.527 94.7881 179.02 94.4163 181.742 93.9517C182.024 93.9052 182.118 94.277 181.883 94.4163L163.198 104.917V104.824ZM137.612 63.1456L147.143 63.8426C152.87 64.2608 156.579 61.7052 157.001 56.1295C157.424 50.5537 154.091 47.58 148.363 47.1618L138.833 46.4648L137.612 63.1921V63.1456Z" fill="#0B0B2B"/>
<path d="M216.014 103.663H198.972L199.348 49.8567H181.086C181.086 49.8567 181.039 45.1173 181.039 41.9577C181.039 37.9153 176.72 36.7072 173.433 35.9173C173.152 35.8708 173.199 35.4526 173.48 35.4526H234.464L233.76 49.8567H215.685L216.014 103.663Z" fill="#0B0B2B"/>
<path d="M274.415 47.6729C272.162 45.3961 268.829 44.9779 265.495 45.1173C260.097 45.4426 256.763 48.5092 257.092 52.7375C257.374 56.687 260.05 58.9173 265.824 60.0789L272.772 61.4729C284.556 63.7032 291.973 69.9759 292.725 80.1052C293.57 92.0931 283.946 102.919 268.594 104.034C259.815 104.685 248.782 101.014 237.797 89.9092L249.205 80.3375C253.524 84.4729 259.064 89.0264 265.449 89.6769C272.631 90.4203 276.575 87.0749 277.138 82.289C277.561 78.7577 274.087 75.3193 267.749 73.9254L261.599 72.5779C249.487 69.9759 242.726 63.7496 241.975 53.5739C241.13 42.19 250.426 32.99 263.524 32.0607C273.758 31.3173 283.241 36.2425 290.377 44.0951L274.087 56.8264C274.087 56.8264 273.57 56.7799 273.711 56.5011C274.697 54.4567 276.575 49.7638 274.415 47.5799V47.6729Z" fill="#0B0B2B"/>
<path d="M120.289 84.9839L124.702 32.0142L148.128 33.6869C164.043 34.8021 173.386 43.5374 172.4 57.198C171.743 66.3051 167.377 72.4849 159.912 75.3657C159.912 75.3657 159.912 75.4586 160.992 77.0384C173.996 74.2505 186.766 71.3233 199.207 68.2101L199.347 49.8566H181.085C181.085 49.8566 181.038 45.1172 181.038 41.9576C181.038 37.9152 176.719 36.7071 173.433 35.9172C173.151 35.8707 173.198 35.4526 173.48 35.4526H234.464L233.759 49.8566H215.685L215.779 63.9819C224.839 61.5657 233.759 59.1031 242.444 56.501C242.257 55.5718 242.069 54.6425 242.022 53.6667C241.177 42.2829 250.472 33.0829 263.57 32.1536C272.631 31.5031 281.129 35.3132 287.983 41.7253C312.348 33.0364 334.742 23.7435 354.882 13.8465C245.073 33.9192 129.491 28.5293 20.0108 7.10913C24.1891 41.4465 12.2646 86.099 4.00195 100.782C44.2353 97.0182 83.2011 91.6748 120.289 85.0303V84.9839Z" fill="#00E100"/>
<path d="M395.82 7.79293e-05C365.492 17.796 326.949 35.3597 281.598 51.1112L274.134 56.9657C274.134 56.9657 273.617 56.9193 273.758 56.6405C274.744 54.596 276.622 49.9031 274.462 47.7193C272.209 45.4425 268.876 45.0243 265.542 45.1637C260.144 45.489 256.81 48.5556 257.139 52.7839C257.421 56.7334 260.097 58.9637 265.871 60.1253L272.819 61.5193C284.603 63.7496 292.02 70.0223 292.771 80.1516C293.617 92.1395 283.992 102.966 268.641 104.081C259.862 104.731 248.829 101.061 237.844 89.9556L249.252 80.3839C253.571 84.5193 259.111 89.0728 265.495 89.7233C272.678 90.4667 276.622 87.1213 277.185 82.3354C277.608 78.8041 274.134 75.3657 267.796 73.9718L261.646 72.6243C253.806 70.9516 248.219 67.6991 245.027 62.8203C235.543 65.6546 225.825 68.4425 215.826 71.091L216.014 103.616H198.972L199.16 75.4122C188.174 78.1536 176.907 80.7556 165.452 83.2647C166.766 85.1698 168.457 87.493 170.522 90.3738C173.527 94.6021 179.02 94.2304 181.742 93.7657C182.024 93.7193 182.118 94.091 181.883 94.2304L163.198 104.731L145.171 76.9455L136.674 76.3415L134.89 101.99L118.975 100.875L119.679 92.2789C100.384 95.6708 80.5722 98.691 60.1504 101.2C212.586 116.998 318.311 110.772 413.002 89.8162C402.251 64.3072 396.007 39.1233 395.773 -0.0463867L395.82 7.79293e-05Z" fill="#00E100"/>
<path d="M148.364 47.1152L138.834 46.4182L137.613 63.1455L147.143 63.8425C152.871 64.2606 156.58 61.7051 157.002 56.1293C157.378 50.6465 154.092 47.5798 148.364 47.1616V47.1152Z" fill="#00E100"/>
</g>
<defs>
<filter id="filter0_d_292_638" x="0.00195312" y="0" width="417" height="169" filterUnits="userSpaceOnUse" color-interpolation-filters="sRGB">
<feFlood flood-opacity="0" result="BackgroundImageFix"/>
<feColorMatrix in="SourceAlpha" type="matrix" values="0 0 0 0 0 0 0 0 0 0 0 0 0 0 0 0 0 0 127 0" result="hardAlpha"/>
<feOffset dy="4"/>
<feGaussianBlur stdDeviation="2"/>
<feComposite in2="hardAlpha" operator="out"/>
<feColorMatrix type="matrix" values="0 0 0 0 0 0 0 0 0 0 0 0 0 0 0 0 0 0 0.25 0"/>
<feBlend mode="normal" in2="BackgroundImageFix" result="effect1_dropShadow_292_638"/>
<feBlend mode="normal" in="SourceGraphic" in2="effect1_dropShadow_292_638" result="shape"/>
</filter>
<clipPath id="clip0_292_638">
<rect width="409" height="161" fill="white" transform="translate(4.00195)"/>
</clipPath>
</defs>
</svg>
