<svg width="241" height="66" viewBox="0 0 241 66" fill="none" xmlns="http://www.w3.org/2000/svg">
<path d="M230.037 0C212.239 10.5699 189.596 20.9933 162.978 30.3179L168.167 26.2259C167.697 25.7027 167.215 25.2213 166.713 24.7503C181.006 19.6014 194.179 14.0653 205.993 8.21523C141.549 20.1247 73.6726 16.9328 9.39611 4.2175C11.8655 24.5724 4.86547 51.0914 0 59.7985C23.6263 57.5589 46.4888 54.388 68.2735 50.4426L67.9178 54.7857C56.5964 56.795 44.9507 58.5845 32.9701 60.0915C122.484 69.4579 184.553 65.7637 240.145 53.331C233.846 38.1982 230.173 23.2538 230.037 0.0104653V0ZM94.7773 49.4588L92.1824 45.7018C99.8311 44.0588 107.302 42.3111 114.605 40.4692L114.574 44.8018C108.129 46.4344 101.516 47.9832 94.7773 49.4693V49.4588ZM124.326 37.947C129.652 36.5133 134.873 35.0482 139.979 33.5202C140.262 34.933 140.764 36.1993 141.486 37.3191C135.919 39.0145 130.196 40.6471 124.347 42.2273L124.315 37.947H124.326Z" fill="white"/>
<path d="M93.4688 62.1845L82.8904 45.6913L77.8889 45.3354L76.8321 60.5519L67.4883 59.8822L70.868 18.9944L84.6064 19.9781C93.9502 20.6479 99.4434 25.8177 98.8575 33.9283C98.4703 39.3179 95.9068 43.0122 91.5331 44.718C91.5331 44.718 91.5436 44.8959 97.7379 53.6972C99.4958 56.1879 102.739 55.9891 104.33 55.6961C104.487 55.6647 104.56 55.8844 104.424 55.9577L93.4688 62.1845ZM78.4539 37.4551L84.0413 37.8528C87.3896 38.0935 89.5869 36.5865 89.8276 33.269C90.0578 30.0248 88.1116 28.1829 84.7633 27.9422L79.1759 27.5445L78.4644 37.4551H78.4539Z" fill="#0B0B2B"/>
<path d="M124.483 61.5145H114.459L114.679 29.5746H103.964C103.964 29.5746 103.933 26.7489 103.933 24.8966C103.933 22.5 101.39 21.7779 99.4651 21.307C99.3082 21.2651 99.3291 21.0349 99.4965 21.0349H135.313L134.884 29.5746H124.274L124.483 61.5145Z" fill="#0B0B2B"/>
<path d="M158.769 28.2982C157.44 26.9482 155.483 26.6866 153.548 26.7912C150.388 26.9901 148.421 28.7901 148.609 31.3227C148.787 33.6669 150.356 34.996 153.736 35.6867L157.817 36.5135C164.733 37.8426 169.086 41.5473 169.525 47.5857C170.027 54.6916 164.367 61.1173 155.347 61.7871C150.199 62.1743 143.702 59.9975 137.267 53.4044L143.974 47.7113C146.516 50.1602 149.77 52.8811 153.516 53.2579C157.743 53.687 160.045 51.7195 160.38 48.8625C160.621 46.7694 158.58 44.7182 154.866 43.9019L151.246 43.1066C144.141 41.5787 140.154 37.8635 139.725 31.825C139.244 25.0645 144.696 19.6225 152.386 19.0574C158.382 18.6283 163.948 21.5377 168.165 26.2052L158.591 33.7506C158.465 33.8448 158.298 33.7088 158.361 33.5727C158.947 32.3483 160.056 29.5855 158.769 28.2668V28.2982Z" fill="#0B0B2B"/>
</svg>
