<svg width="1440" height="570" viewBox="0 0 1440 570" fill="none" xmlns="http://www.w3.org/2000/svg">
<mask id="mask0_20_1762" style="mask-type:alpha" maskUnits="userSpaceOnUse" x="0" y="0" width="1440" height="570">
<rect width="1440" height="570" transform="matrix(1 0 0 -1 0 570)" fill="white"/>
</mask>
<g mask="url(#mask0_20_1762)">
<path fill-rule="evenodd" clip-rule="evenodd" d="M-190.079 340.548C-190.104 340.541 -190.125 340.535 -145.714 166.1C-101.302 -8.33491 -101.316 -8.33926 -101.326 -8.34202L-100.92 -8.23877C-100.573 -8.15089 -100.006 -8.00795 -99.2247 -7.81171C-97.6613 -7.41922 -95.2381 -6.81359 -91.9884 -6.00969C-85.4887 -4.40182 -75.6848 -2.002 -62.8426 1.07461C-37.1539 7.22885 0.665806 16.0805 48.4984 26.6953C144.225 47.9385 279.718 76.1675 438.083 103.949C756.856 159.871 1159.98 212.467 1516.22 205.556L1523.2 565.488C1132.73 573.062 703.138 515.947 375.877 458.536C211.224 429.651 70.3712 400.309 -29.4953 378.148C-79.4594 367.06 -119.245 357.751 -146.715 351.17C-160.452 347.879 -171.117 345.269 -178.439 343.458C-182.101 342.552 -184.927 341.846 -186.886 341.354C-187.866 341.108 -188.628 340.916 -189.169 340.779C-189.44 340.71 -189.655 340.656 -189.815 340.615L-190.079 340.548Z" fill="white"/>
</g>
</svg>
